# xmcd
#
# Track frame offsets:
#	182
#	12137
#	23532
#	34687
#	45345
#	56940
#	67510
#	78772
#	90357
#	102495
#	115537
#	127642
#	147585
#	161175
#	175172
#	186937
#	197370
#	207072
#
# Disc length: 2899
#
# Revision: 1
# Processed by: cddbd v1.5.1PL0 Copyright (c) Steve Scherf et al.
# Submitted via: dBpowerAMP V4.0
# Normalized: r0:DSETVAR1,TDELIM( - )
#
DISCID=d50b5112
DTITLE=Various Artist - Original Soul Music
DYEAR=1991
DGENRE=Soul
TTITLE0=Robert Parker - Barefootin'
TTITLE1=The Isley Brothers - Twist And Shout
TTITLE2=Bobby Lewis - Tossin' And Turnin'
TTITLE3=Gene Chandler - Duke of Earl
TTITLE4=Solomon Burke - Cry To Me
TTITLE5=Ben E. King - What Is Soul
TTITLE6=Gary "US" Bond - Quarter to Three
TTITLE7=Dean and Jean - Hey Jean, Hey Dean
TTITLE8=The Shireless - Soldier Boy
TTITLE9=Donnie Warwick - Walk On By
TTITLE10=Aretha Franklin - Baby I Love You
TTITLE11=James Brown - Georgia On My MInd
TTITLE12=Ray Charles - I Believe To My Soul
TTITLE13=Toussaint Mc Call - Nothing Takes The Place Of You
TTITLE14=Ernie K. Doe - Mother In Law
TTITLE15=Brenton Wood - Gimme Little Sign
TTITLE16=The Chiffons - One Fine Day
TTITLE17=Lee Dorsey - Get Out Of My Life
EXTD=
EXTT0=
EXTT1=
EXTT2=
EXTT3=
EXTT4=
EXTT5=
EXTT6=
EXTT7=
EXTT8=
EXTT9=
EXTT10=
EXTT11=
EXTT12=
EXTT13=
EXTT14=
EXTT15=
EXTT16=
EXTT17=
PLAYORDER=
